# xmcd
#
# Track frame offsets: 
#        150
#        11891
#        46896
#        57630
#        97899
#        115226
#        161200
#        175260
#        210361
#        222244
#        248225
#        280763
#        300545
#
# Disc length: 4551 seconds
#
# Revision: 1
# Processed by: cddbd v1.5.2PL0 Copyright (c) Steve Scherf et al.
# Submitted via: ExactAudioCopy v0.99pb4
#
DISCID=b511c50d
DTITLE=Bennie Maupin Quartet - Early Reflections
DYEAR=2008
DGENRE=Jazz
TTITLE0=Within Reach
TTITLE1=Escondido
TTITLE2=Inside the Shadows
TTITLE3=ATMA
TTITLE4=Ours Again
TTITLE5=The Jewel in the Lotus
TTITLE6=Black Ice
TTITLE7=Tears
TTITLE8=Not Later Than Now
TTITLE9=Early Reflections
TTITLE10=Inner Sky
TTITLE11=Prophet's Motifs
TTITLE12=Spirits of the Tatras
EXTD=YEAR: 2008
EXTT0=
EXTT1=
EXTT2=
EXTT3=
EXTT4=
EXTT5=
EXTT6=
EXTT7=
EXTT8=
EXTT9=
EXTT10=
EXTT11=
EXTT12=
PLAYORDER=
